<?xml version="1.0" encoding="utf-8"?>
<!-- Generator: Adobe Illustrator 27.2.0, SVG Export Plug-In . SVG Version: 6.00 Build 0)  -->
<svg version="1.1" id="Calque_1" xmlns="http://www.w3.org/2000/svg" xmlns:xlink="http://www.w3.org/1999/xlink" x="0px" y="0px"
	 viewBox="0 0 375 240.7" style="enable-background:new 0 0 375 240.7;" xml:space="preserve">
<style type="text/css">
	.st0{fill:none;stroke:#BAEBCC;stroke-width:1.9749;stroke-miterlimit:10;}
	.st1{fill:none;stroke:#BAEBCC;stroke-width:1.9634;stroke-miterlimit:10;}
	.st2{fill:#BAEBCC;}
	.st3{fill:none;stroke:#BAEBCC;stroke-width:8.083;stroke-miterlimit:10;}
	.st4{fill:none;stroke:#BAEBCC;stroke-width:4.2092;stroke-miterlimit:10;}
</style>
<path class="st0" d="M289.2,102.7l24.1-0.1c1.5,0,2.8-1.2,2.8-2.8V54.1c0-1.5,1.2-2.7,2.7-2.7h60.5"/>
<path class="st0" d="M291.9,108.6h26.7c1.8,0,3.3-1.5,3.3-3.3V59.8c0-1.4,1.1-2.6,2.6-2.6h54.7"/>
<path class="st0" d="M292.8,131.8h7.9c1.7,0,3,1.3,3,3v85.1c0,2,1.7,3.7,3.7,3.7h45.4c2.3,0,4.2-1.9,4.2-4.2V154
	c0-1.9,1.5-3.4,3.4-3.4H379"/>
<path class="st1" d="M292.3,126.4h15c2.6,0,4.6,2.1,4.6,4.6l-0.9,80.6c0,2.5,2,4.6,4.5,4.6h32.8c1.8,0,3.3-1.5,3.3-3.3v-64
	c0-1.6,1.3-2.8,2.8-2.8h24.7"/>
<path class="st0" d="M82.6,100.8H65.3c-1.6,0-2.9-1.3-2.9-2.9V44.2c0-1.4-1.2-2.6-2.6-2.6H-4.8"/>
<path class="st0" d="M82.1,105.1H58.8c-1.3,0-2.3-1-2.3-2.3V48.5c0-1.1-0.9-2-2-2H-4.8"/>
<path class="st0" d="M81.7,61.3H36.8c-1.1,0-2,0.9-2,2v78.4c0,0.9,0.7,1.6,1.6,1.6h21.7c0.7,0,1.3,0.6,1.3,1.3v26.7
	c0,1.3-1.1,2.4-2.4,2.4H-4.9"/>
<path class="st0" d="M81.2,65.3H42.1c-1.3,0-2.4,1.1-2.4,2.4v67.4c0,1.3,1,2.3,2.3,2.3h22.2c0.7,0,1.2,0.5,1.2,1.2v39.3
	c0,1.7-1.3,3-3,3H-4.8"/>
<rect x="53.5" y="57.4" class="st2" width="11.8" height="11.8"/>
<path class="st0" d="M293.3,72.1h50.8c1.4,0,2.6,1.1,2.6,2.6v32.1c0,1.6,1.3,2.9,2.9,2.9h29.5"/>
<path class="st0" d="M291.4,77h46.2c1.2,0,2.1,1,2.1,2.1v33.2c0,1.8,1.4,3.2,3.2,3.2H379"/>
<rect x="312.1" y="69.1" class="st2" width="12.8" height="12.8"/>
<path class="st0" d="M83.1,195.6H24.6c-1.5,0-2.6-1.2-2.6-2.6v-47c0-1-0.8-1.7-1.7-1.7h-25"/>
<path class="st0" d="M81.2,201.5H18.5c-1.9,0-3.5-1.6-3.5-3.5v-45.1c0-0.9-0.8-1.7-1.7-1.7H-4.9"/>
<rect x="12" y="168" class="st2" width="12.8" height="16.8"/>
<path class="st3" d="M271.5,224.5H103.5c-10,0-18.1-8.1-18.1-18.1V34.3c0-10,8.1-18.1,18.1-18.1h167.9c10,0,18.1,8.1,18.1,18.1
	v172.3C289.5,216.4,281.4,224.5,271.5,224.5z"/>
<circle class="st4" cx="187.5" cy="123.3" r="44.9"/>
<polygon class="st2" points="177.2,124.1 177.2,105.5 193.4,114.8 209.5,124.1 193.4,133.4 177.2,142.8 "/>
<g>
	<g>
		<path class="st2" d="M138.4,58.8c0.5,2.8,0.7,4.2,1.3,7.1c-0.8-0.3-1.3-0.5-2.1-0.8c5.6-2.3,8.5-3.3,14.3-5
			c0.3,0.9,0.4,1.4,0.7,2.3c-6.4,1.8-9.5,2.9-15.7,5.6c-0.7-3.1-1-4.7-1.6-7.9c-1.8-2.7-2.7-4-4.6-6.6c6.9-3,10.4-4.2,17.5-6.3
			c0.3,0.9,0.4,1.4,0.7,2.3c-6.2,1.8-9.3,2.9-15.3,5.4c0.4-0.8,0.6-1.3,1.1-2.1C136,55.2,136.8,56.4,138.4,58.8z M149.2,53.9
			c0.3,0.9,0.4,1.3,0.6,2.2c-5.4,1.6-8,2.5-13.3,4.6c-0.4-0.9-0.5-1.3-0.9-2.1C141.1,56.5,143.8,55.5,149.2,53.9z M139.3,45.3
			c1.7-0.6,2.6-0.9,4.3-1.4c-1.5,1.8-2.2,2.7-3.5,4.5c-1.5,0.5-2.2,0.8-3.7,1.3C137.5,48,138.1,47.1,139.3,45.3z"/>
		<path class="st2" d="M170,54c0,1-0.4,1.9-1.1,2.8c-0.7,0.9-1.5,1.6-2.6,2.2c-1.1,0.6-2.3,1-3.8,1.3c-1.6,0.3-3.1,0.4-4.4,0.2
			c-1.3-0.2-2.5-0.7-3.4-1.4c-0.9-0.7-1.6-1.7-1.9-2.9c-0.3-1.2-0.2-2.3,0.3-3.4s1.4-2.1,2.6-2.9c1.2-0.8,2.7-1.4,4.5-1.8
			c1.6-0.3,3-0.4,4.3-0.2c1.3,0.2,2.5,0.6,3.4,1.3c0.9,0.6,1.5,1.4,1.8,2.4c-1.4,0.2-2.1,0.3-3.5,0.5c-0.4-0.8-1.1-1.4-2.1-1.8
			c-1-0.3-2.2-0.4-3.6-0.1c-1.1,0.2-2,0.6-2.7,1.1c-0.7,0.5-1.2,1.1-1.5,1.8c-0.3,0.7-0.3,1.5-0.1,2.3c0.2,0.8,0.6,1.5,1.1,2
			c0.6,0.5,1.2,0.8,2.1,1s1.7,0.1,2.7-0.1c1.3-0.3,2.3-0.7,3.1-1.4c0.8-0.7,1.3-1.4,1.4-2.3C168,54.3,168.6,54.2,170,54z"/>
		<path class="st2" d="M181,58c-1.7,0.1-3.2-0.1-4.6-0.5c-1.3-0.4-2.4-1-3.3-1.9c-0.8-0.9-1.4-1.9-1.5-3.1c-0.1-1.2,0.1-2.4,0.8-3.4
			c0.7-1,1.7-1.9,3.1-2.5c1.4-0.6,3-1,4.9-1.1c1.9-0.1,3.6,0.1,5,0.6c1.4,0.5,2.5,1.2,3.3,2.2c0.8,0.9,1.1,2,1.1,3.3
			c0,1.2-0.4,2.3-1.2,3.2c-0.8,0.9-1.8,1.7-3.1,2.2S182.7,57.9,181,58z M180.9,55.8c1.1-0.1,2.1-0.3,2.9-0.6
			c0.8-0.4,1.4-0.8,1.9-1.5c0.4-0.6,0.7-1.3,0.7-2.2c0-0.8-0.2-1.6-0.7-2.2c-0.5-0.6-1.1-1.1-2-1.4c-0.9-0.3-1.9-0.4-3.1-0.4
			c-1.2,0.1-2.2,0.3-3,0.7c-0.8,0.4-1.5,0.9-1.9,1.6c-0.4,0.6-0.6,1.4-0.5,2.2s0.4,1.5,0.9,2.1c0.5,0.6,1.2,1,2,1.3
			C178.8,55.8,179.8,55.9,180.9,55.8z"/>
		<path class="st2" d="M198.2,58.3c-1.3-0.1-2.4-0.4-3.3-0.9c-0.9-0.5-1.6-1.2-2-2c-0.5-0.9-0.7-1.9-0.6-3c0.1-2.6,0.1-3.9,0.2-6.6
			c1.4,0.1,2.1,0.1,3.6,0.2c-0.2,2.5-0.2,3.7-0.4,6.2c-0.1,1.2,0.2,2.2,0.9,2.9c0.6,0.7,1.6,1.1,2.9,1.2c0.9,0.1,1.7,0,2.5-0.3
			c0.7-0.3,1.3-0.7,1.7-1.2c0.5-0.6,0.7-1.3,0.8-2.1c0.4,0.3,0.7,0.4,1.1,0.7c-0.3,1.2-0.8,2.2-1.5,3c-0.7,0.8-1.6,1.4-2.6,1.7
			C200.5,58.2,199.4,58.4,198.2,58.3z M204.6,58.7c-0.1-1.7-0.2-2.6-0.3-4.4c0.4-3,0.6-4.5,1-7.6c1.4,0.2,2.1,0.3,3.5,0.5
			c-0.5,3.2-0.7,4.8-1.2,7.9c0.1,1.6,0.1,2.4,0.2,4C206.5,58.9,205.9,58.8,204.6,58.7z"/>
		<path class="st2" d="M210.7,49.7c0.1-0.5,0.1-0.7,0.2-1.2c1.4,0,2,0,3.4,0c0.8-1.2,1.3-1.8,2.1-3c0.8,0.2,1.3,0.3,2.1,0.5
			c-0.3,1.2-0.4,1.8-0.7,3c2.8,0.6,4.3,1,7.1,1.8c-0.2,0.8-0.3,1.2-0.6,2c-2.8-0.8-4.2-1.1-7-1.7c-0.4,2-0.7,3-1.1,5
			c-0.2,1-0.1,1.7,0.3,2.2c0.4,0.5,1.2,0.9,2.4,1.2c0.7,0.2,1.4,0.3,2,0.3c0.6,0,1.2,0,1.8-0.1c-0.2,0.9-0.4,1.3-0.6,2.2
			c-0.5,0.1-1.1,0.1-1.9,0c-0.8,0-1.6-0.2-2.5-0.4c-1.4-0.3-2.4-0.8-3.2-1.3c-0.8-0.6-1.3-1.2-1.5-2c-0.3-0.7-0.3-1.6-0.1-2.4
			c0.4-2.2,0.6-3.3,1.1-5.5C212.6,50,212,49.9,210.7,49.7z"/>
		<path class="st2" d="M231.1,65.5c-1.6-0.6-2.9-1.3-4-2.2c-1.1-0.9-1.9-1.9-2.3-3c-0.5-1.1-0.5-2.3-0.2-3.5c0.3-1.2,1-2.1,2-2.8
			c1-0.7,2.2-1.1,3.7-1.2c1.5-0.1,3,0.2,4.7,0.8c1.7,0.6,3,1.4,4,2.5c1,1,1.6,2.2,1.8,3.5c0.2,1.3,0,2.6-0.6,3.9
			c-5.2-2.3-7.9-3.2-13.3-4.9c0.2-0.8,0.4-1.2,0.6-2c4.8,1.5,7.2,2.4,11.8,4.3c-0.8,0-1.2,0-1.9,0.1c0.2-0.7,0.3-1.5,0.1-2.1
			c-0.2-0.7-0.6-1.3-1.1-1.8c-0.6-0.5-1.3-1-2.3-1.3c-1-0.4-1.9-0.5-2.7-0.4c-0.8,0.1-1.6,0.3-2.1,0.7c-0.6,0.4-1,1-1.2,1.8
			c-0.3,0.8-0.3,1.6,0,2.4c0.3,0.8,0.8,1.5,1.5,2.1c0.7,0.6,1.7,1.1,2.9,1.6c1.1,0.4,2.2,0.7,3.4,0.8c1.2,0.2,2.3,0.2,3.4,0.1
			c-0.3,0.7-0.5,1.1-0.8,1.8c-1,0.2-2.2,0.1-3.5,0C233.6,66.3,232.4,66,231.1,65.5z"/>
	</g>
</g>
<g>
	<g>
		<path class="st2" d="M158.5,187.1c1.1,0.3,1.7,0.5,2.8,0.8c-0.1,1.7-0.2,2.6-0.3,4.3c-0.7,3-1.1,4.4-1.9,7.4
			c-1.3-0.3-1.9-0.5-3.1-0.8c0.9-3.1,1.3-4.6,2.2-7.7C158.3,189.5,158.4,188.7,158.5,187.1z M166.7,188.8c1.1,0.2,2,0.6,2.7,1.2
			c0.7,0.6,1.2,1.3,1.5,2.2c0.3,0.9,0.3,1.9,0.2,3.1c-0.4,2.6-0.6,3.9-1,6.5c-1.3-0.2-1.9-0.3-3.2-0.5c0.4-2.4,0.7-3.6,1.1-6
			c0.2-1.2,0.1-2.2-0.3-2.9s-1.2-1.2-2.3-1.4c-0.8-0.2-1.5-0.1-2.1,0.1c-0.6,0.2-1.2,0.6-1.6,1.1c-0.5,0.5-0.8,1.2-1,2
			c-0.4-0.3-0.6-0.5-0.9-0.8c0.5-1.2,1-2.1,1.8-2.8c0.7-0.7,1.5-1.2,2.4-1.5C164.8,188.7,165.7,188.6,166.7,188.8z M176.4,190.4
			c1.1,0.1,2,0.4,2.8,0.9c0.8,0.5,1.3,1.2,1.7,2c0.4,0.9,0.5,1.9,0.5,3c-0.1,2.6-0.2,3.9-0.4,6.6c-1.3-0.1-1.9-0.1-3.2-0.2
			c0.2-2.4,0.3-3.7,0.5-6.1c0.1-1.2-0.1-2.2-0.6-2.9c-0.5-0.7-1.3-1.1-2.4-1.2c-0.8-0.1-1.5,0-2.1,0.3c-0.6,0.3-1.1,0.7-1.5,1.2
			c-0.4,0.6-0.7,1.3-0.8,2.1c-0.4-0.3-0.6-0.4-1-0.7c0.3-1.2,0.8-2.2,1.5-3c0.7-0.8,1.4-1.3,2.3-1.7
			C174.5,190.4,175.4,190.2,176.4,190.4z"/>
		<path class="st2" d="M192,203.4c-1.7,0.1-3.2-0.2-4.5-0.7c-1.3-0.5-2.3-1.3-2.9-2.2c-0.7-1-1-2.1-0.9-3.3c0-1.2,0.4-2.3,1.1-3.2
			c0.7-0.9,1.6-1.6,2.8-2.2c1.2-0.5,2.5-0.8,4-0.9c1.5-0.1,2.9,0.1,4.1,0.6c1.2,0.4,2.2,1.1,2.9,1.9c0.8,0.9,1.2,1.9,1.4,3.1
			c0.1,1.2-0.1,2.3-0.7,3.4c-0.6,1-1.5,1.8-2.8,2.5C195.2,202.9,193.7,203.3,192,203.4z M191.9,201.2c1.1,0,2-0.3,2.7-0.6
			c0.7-0.4,1.3-0.9,1.7-1.5c0.4-0.6,0.5-1.4,0.4-2.2c-0.1-0.8-0.3-1.5-0.8-2.1c-0.4-0.6-1-1-1.8-1.3c-0.7-0.3-1.6-0.4-2.6-0.4
			c-1,0-1.8,0.2-2.6,0.6c-0.7,0.3-1.3,0.8-1.7,1.4c-0.4,0.6-0.6,1.3-0.6,2.2c0,0.8,0.2,1.6,0.6,2.2c0.4,0.6,1,1.1,1.8,1.4
			C189.9,201.1,190.8,201.3,191.9,201.2z"/>
		<path class="st2" d="M202.7,188.5c-0.5,0.1-1,0-1.4-0.2c-0.4-0.2-0.6-0.6-0.7-1c-0.1-0.5,0.1-0.9,0.4-1.2c0.3-0.3,0.7-0.5,1.2-0.6
			c0.5-0.1,1,0,1.4,0.2c0.4,0.2,0.6,0.6,0.7,1s0,0.9-0.3,1.2C203.7,188.2,203.2,188.4,202.7,188.5z M201.5,190.2c0.6,0,0.9,0,1.5,0
			c0.6-0.2,0.8-0.3,1.4-0.5c0.8,4.7,1.2,7.1,1.9,11.8c-1.3,0.2-1.9,0.3-3.2,0.5C202.5,197.3,202.1,195,201.5,190.2z"/>
		<path class="st2" d="M217.9,199.3c-0.6,0.2-1.1,0.1-1.5-0.1c-0.4-0.2-0.7-0.5-0.8-1c-0.1-0.5,0-0.9,0.3-1.3
			c0.3-0.4,0.7-0.7,1.3-0.8c0.6-0.2,1.1-0.1,1.5,0.1c0.4,0.2,0.7,0.5,0.9,1c0.1,0.5,0.1,0.9-0.2,1.3S218.5,199.1,217.9,199.3z
			 M212.3,184.2c1.1-0.3,1.7-0.4,2.8-0.8c1,4.3,1.5,6.4,2.5,10.7c-0.8,0.2-1.3,0.4-2.1,0.6C214.2,190.6,213.6,188.5,212.3,184.2z"/>
	</g>
</g>
</svg>
