<?xml version="1.0" encoding="utf-8"?>
<!-- Generator: Adobe Illustrator 27.2.0, SVG Export Plug-In . SVG Version: 6.00 Build 0)  -->
<svg version="1.1" id="Calque_1" xmlns="http://www.w3.org/2000/svg" xmlns:xlink="http://www.w3.org/1999/xlink" x="0px" y="0px"
	 viewBox="0 0 320 166.6" style="enable-background:new 0 0 320 166.6;" xml:space="preserve">
<style type="text/css">
	.st0{fill:none;stroke:#CFECCF;stroke-width:1.7176;stroke-miterlimit:10;}
	.st1{fill:none;stroke:#CFECCF;stroke-width:1.774;stroke-miterlimit:10;}
	.st2{fill:none;stroke:#CFECCF;stroke-width:1.8161;stroke-miterlimit:10;}
	.st3{fill:#CFECCF;}
</style>
<g>
	<path class="st0" d="M193.6,140.3V94c0-2.4,2.1-4.4,4.6-4.4h122.6"/>
	<path class="st0" d="M198.9,128.5V98.2c0-2.6,2.2-4.7,4.9-4.7h117"/>
	<path class="st1" d="M261.9,158.4h39.4c2.7,0,4.9-2,4.9-4.4v-32.6c0-2.6,2.3-4.7,5.2-4.7h9.4"/>
	<path class="st2" d="M264.5,163.4H306c3.1,0,5.6-2.1,5.6-4.8v-34.3c0-1.4,1.4-2.6,3-2.6h6.1"/>
	<path class="st0" d="M94.8,124V56.7c0-2.5-2.1-4.5-4.7-4.5h-66c-2.6,0-4.7,2-4.7,4.5v42.5H-0.2"/>
	<path class="st0" d="M-0.1,106.5h26.3V63.9c0-2.8,2.4-5.1,5.3-5.1h52.2c2.6,0,4.6,2,4.6,4.4v59.5"/>
	<path class="st0" d="M238.7,131.2V61.7c0-2.9,2.5-5.3,5.5-5.3h76.6"/>
	<path class="st0" d="M231.7,132.2l0.4-76.6c0-2.6,2.2-4.7,4.9-4.7h75.8c1.9,0,3.5-1.5,3.5-3.3V0.9h3.8"/>
	<rect x="229.9" y="83.4" class="st3" width="12.3" height="16"/>
	<path class="st0" d="M55.5,127.4l-0.1-24.3c0-2.3,1.9-4.1,4.2-4.1l69.5-0.4c2.1,0,3.7,1.6,3.7,3.6v29.7"/>
	<path class="st0" d="M60.2,123v-17.2c0-1.8,1.5-3.2,3.3-3.2h61.6c2.3,0,4.2,1.8,4.2,4.1v15.9"/>
	<rect x="84.7" y="96" class="st3" width="13.1" height="9.3"/>
</g>
</svg>
