<?xml version="1.0" encoding="utf-8"?>
<!-- Generator: Adobe Illustrator 27.2.0, SVG Export Plug-In . SVG Version: 6.00 Build 0)  -->
<svg version="1.1" id="Calque_1" xmlns="http://www.w3.org/2000/svg" xmlns:xlink="http://www.w3.org/1999/xlink" x="0px" y="0px"
	 viewBox="0 0 320 123.6" style="enable-background:new 0 0 320 123.6;" xml:space="preserve">
<style type="text/css">
	.st0{fill:none;stroke:#BAEBCC;stroke-width:2.6728;stroke-miterlimit:10;}
	.st1{fill:none;stroke:#BAEBCC;stroke-width:2.7149;stroke-miterlimit:10;}
	.st2{fill:#BAEBCC;}
	.st3{fill:none;stroke:#BAEBCC;stroke-width:2.6863;stroke-miterlimit:10;}
	.st4{fill:#CFECCF;}
</style>
<path class="st0" d="M98.4,0.2v37.5c0,4.1-2.8,7.4-6.2,7.4H66.4c-4.1,0-7.5,4-7.5,9v61.4c0,1.5-1,2.7-2.3,2.7L0,118.6"/>
<path class="st1" d="M48.1,0v106.2c0,1.3-0.9,2.3-2,2.3l-46,0.3"/>
<path class="st1" d="M53.9,0.2v109.6c0,1.4-1.1,2.6-2.5,2.6L0,112.7"/>
<rect x="43.2" y="59.6" class="st2" width="20.2" height="29.3"/>
<path class="st1" d="M262.6,0v81.3c0,0.8,0.7,1.4,1.6,1.4H320"/>
<path class="st1" d="M272.3,0v109.7c0,1,0.7,1.7,1.6,1.7H320"/>
<path class="st1" d="M275.6,0v106.6c0,0.5,0.4,0.9,0.8,0.9H320"/>
<path class="st1" d="M258,0v85c0,1.1,0.9,2,1.9,2l60.1,0.4"/>
<rect x="268.1" y="77.3" class="st2" width="12.2" height="21"/>
<path class="st3" d="M188.5,0l-0.2,64.7c0,9.2-8,16.7-17.9,16.7L0,81.5"/>
<path class="st1" d="M0,67.5h165.1c4.9,0,8.9-4,8.9-8.9L174.2,0"/>
<path class="st1" d="M181,0l-0.2,62.2c0,6.7-5.3,12.1-11.9,12.1L0,73.7"/>
<path class="st1" d="M253.8,0v89.5c0,1.9,1.3,3.4,2.9,3.4H320"/>
<rect x="45.5" class="st4" width="11.8" height="2"/>
<polyline class="st4" points="103.5,0 103.5,2 93.4,2 93.4,0 "/>
<rect x="169" class="st4" width="23.5" height="2.4"/>
<rect x="250.4" class="st4" width="15.1" height="2.4"/>
<rect x="269.7" class="st4" width="8.4" height="2.4"/>
</svg>
