<?xml version="1.0" encoding="utf-8"?>
<!-- Generator: Adobe Illustrator 27.2.0, SVG Export Plug-In . SVG Version: 6.00 Build 0)  -->
<svg version="1.1" id="Calque_1" xmlns="http://www.w3.org/2000/svg" xmlns:xlink="http://www.w3.org/1999/xlink" x="0px" y="0px"
	 viewBox="0 0 320 171.7" style="enable-background:new 0 0 320 171.7;" xml:space="preserve">
<style type="text/css">
	.st0{fill:none;stroke:#BAEBCC;stroke-width:2.4167;stroke-miterlimit:10;}
	.st1{fill:none;stroke:#BAEBCC;stroke-width:2.3932;stroke-miterlimit:10;}
	.st2{fill:#BAEBCC;}
</style>
<path class="st0" d="M148.4,202.1v-78.2c0-1.7,1.4-3.1,3.1-3.1h159.2h38.9"/>
<path class="st0" d="M154.7,180.3v-50.4c0-1.1,0.9-2,2-2h154h37.5"/>
<path class="st0" d="M89.1,225.8V122.2c0-2.4-1.9-4.4-4.4-4.4H-43.8"/>
<path class="st0" d="M84,222.6v-94.2c0-2-1.6-3.6-3.6-3.6H-36.2"/>
<path class="st0" d="M32.8,175.8v-135c0-1.3-1.1-2.3-2.3-2.3h-46.1"/>
<path class="st0" d="M38.7,194.8v-159c0-1.6-1.3-2.9-2.9-2.9H-9.5"/>
<path class="st0" d="M249,180.3V64.6c0-2,1.6-3.6,3.6-3.6h58.1H345"/>
<path class="st0" d="M254.7,173.4v-102c0-2.1,1.7-3.8,3.8-3.8h52.2h16.2"/>
<path class="st1" d="M260.6,184.3V77.9c0-1.7,1.4-3.1,3.1-3.1h47.1h22.1"/>
<path class="st0" d="M78.3,175.8v-41.3c0-1.9-1.5-3.4-3.4-3.4H-2.5"/>
<rect x="29.2" y="113.5" class="st2" width="13.7" height="21.8"/>
<rect x="241.9" y="111.8" class="st2" width="25" height="27.4"/>
<path class="st0" d="M174.8,173.7V160c0-1.8,1.5-3.3,3.3-3.3h45.7c2,0,3.5,1.6,3.5,3.5v15.7"/>
<path class="st0" d="M297,177.4v-27.6c0-2.5,2.1-4.6,4.6-4.6h19.6"/>
<rect x="29.2" y="169" class="st2" width="12.9" height="4.8"/>
<rect x="73.5" y="169" class="st2" width="20.1" height="4.8"/>
<rect x="142.8" y="169" class="st2" width="16.9" height="4"/>
<rect x="170.2" y="169" class="st2" width="9.7" height="4"/>
<rect x="222.5" y="169" class="st2" width="9.7" height="4"/>
<rect x="244.3" y="169" class="st2" width="20.9" height="5.6"/>
<rect x="292.6" y="169" class="st2" width="8.9" height="4"/>
</svg>
