<?xml version="1.0" encoding="utf-8"?>
<!-- Generator: Adobe Illustrator 27.2.0, SVG Export Plug-In . SVG Version: 6.00 Build 0)  -->
<svg version="1.1" id="Calque_1" xmlns="http://www.w3.org/2000/svg" xmlns:xlink="http://www.w3.org/1999/xlink" x="0px" y="0px"
	 viewBox="0 0 320 166.6" style="enable-background:new 0 0 320 166.6;" xml:space="preserve">
<style type="text/css">
	.st0{fill:#BAEBCC;}
</style>
<path class="st0" d="M320,93.2h-10v8h-0.6v5.5H303v-4.5h-4.5l-5.8,3v1.7H281V95.6c0,0-15.5,0-15.8,0s0,25.8,0,25.8h-2.6v-3.2h-4.2
	v-1.7h-3.9V90.1h1.6v-4.4h-1.9V75.5l-7.4-8.9l-7.4,8.9v10.2h-1.6v3.9h1.6v28.6h-12.2v3.4h-2.9v-6h-3.2v-5.9h-14.5v5.8h-2.3v-14.1h-1
	v-6.9h-10.6v2.9H185v-4.9h-0.6v-6.3h-0.6v-2.7h-0.3v9h-0.6v4.8H177v-4.7h-0.6v-9H176v2.5h-0.6v6.5h-0.6v4.7h-8.4v45.4h-5.8v-10.1
	h-3.9l-2.6-59.8h2.9v-2.9l1.9-1.8v-3l-2.3-2.3v-2.3h-2.9v-4.2h-0.6V35.1h-0.6V22.4h-1V6.2h-0.6v16.2h-0.8v12.7h-0.5v21.4H149v3.9
	h-3.2v2.5l-2.3,2.5v2.5l1.6,1.9v2.9h3.2l-2.1,46.8l-4.3-1.1l-8.4,1.2V105h-3.2v-1.8h-0.6v-12h-1v12h-4.5V91.4h-0.6v12.1H121v1.6
	h-4.2v41.2h-2.6V89.5h-3.9v-1.9h-7.2V62.3H88.7V136h-1.6v6.6h-5v-29.1l-1.4-2.6H63.6V90.7l-10-8.6l-1-3.2L51,82.2l-4.2,50.1V150
	h-5.2v-17.5h-10V119H33V98.2h-0.6v10.3l-8.1,6.7h-2.5v13.3l-2.1,1.3v26.6h-2.2v-6.9h-7.2v3.5H7v10.3H0v3.3h320V93.2 M99.3,71.7h-7
	l-1-5.4h9.2L99.3,71.7z"/>
</svg>
