<?xml version="1.0" encoding="utf-8"?>
<!-- Generator: Adobe Illustrator 27.2.0, SVG Export Plug-In . SVG Version: 6.00 Build 0)  -->
<svg version="1.1" id="Calque_1" xmlns="http://www.w3.org/2000/svg" xmlns:xlink="http://www.w3.org/1999/xlink" x="0px" y="0px"
	 viewBox="0 0 320 166.6" style="enable-background:new 0 0 320 166.6;" xml:space="preserve">
<style type="text/css">
	.st0{fill:#2D2D2D;}
</style>
<path class="st0" d="M0,166.6l320,0l0-50.4l-8.5-8.4v45.5h-2.9v-13.9H302v-35.3L290.6,88v28.6h-0.6l-0.3-4.4l-1.9-0.1V109
	c-1.9-2.2-4.8-2-4.8-2V96.3l-6.7-61.8h-2.2v11.1h-2.2V34.5h-2.2l-6.3,61.8v43.1h-1.9v-29.2h-1.3v-3.7l-4.8-4.4v-4.2l-0.6-0.6v-9.4
	h-0.6v9.4l-0.6,0.7v4l-4.8,4.6v3.7h-1.3v8.4h-0.3v-1.7l-2.5-2.4v-8.7l-6,3.2l-3.2,20.3l-1-25.4l2.2-30.8l-3.2-0.6v-19h-0.6V38.9
	h-0.6v14.6h-0.6v18.7l-2.9-0.6l1.6,32l-1.9,32.4h-1.6v-18.3h-2.2v-3.7h-12v-3.8h-1.3v-6.8h-1v-4.3h-2.9v-2.3h-1.3v-8.8h-0.6v-1.7h-1
	v-8.3v-5h-0.3v5.1H204v8.2h-0.6v1.6h-0.6v8.8h-1.3v2.1h-2.5v4.3h-1.3v7.3h-1v36h-1.3v-7h-1v-33.3l-5.1-4V89.4h-0.6v12.4l-1.9-1.3
	V89.4h-0.6v10.8l-0.6-0.3v23.4l-6.7,5v21.9h-5.4l1-5.4l-3.2,0.5v-16.5h-5.1V97.2h-11.7v20.1l-2.2-1.6h-3.2v20.4h-4.4V87.8h-2.9
	l-7.6,4.4l-1.6,19.8h-1.6v-2.4h-0.6v-7.8h-1v7.8h-5.4l-1.6-55.2h-7.9l-3.2,81.5h-1.3l-2.9-42.8l-2.5-0.5v-9.4H104v-6.7h-0.8v6.7H101
	v5.4l-2.2,1l-0.3,8.2h-1l-2.9,44.9H93V99.5h-1v-6.1H81.3v7.9h-0.6v5.5h-6.3v-4.5h-4.4l-5.7,3v1.7H52.8V95.8c0,0-15.2,0-15.5,0
	c-0.3,0,0,25.7,0,25.7h-2.5v-3.2h-4.1v-1.7h-3.8V90.3h1.6V86h-1.9V75.7l-7.3-8.9l-7.3,8.9v10.2h-1.6v3.9h1.6v28.6l-11.9,0L0,166.6z
	 M163.6,101.1h-6.5v-2.8h6.5V101.1z"/>
</svg>
